# xmcd
#
# Track frame offsets:
#	150
#	14841
#	27658
#	41549
#	55920
#	75208
#	85336
#	99401
#	116303
#	132566
#	146482
#	162285
#
# Disc length: 2343 seconds
# Revision: 0
# Processed by: cddbd v1.5.2PL0 Copyright (c) Steve Scherf et al.
# Submitted via: dBpowerAMP V12.0
#
DISCID=9909250c
DTITLE=Jonno Zilber - Johnny Who?!
DYEAR=2012
DGENRE=Blues Gospel
TTITLE0=I Got A Testimony
TTITLE1=Johnny Who?!
TTITLE2=No Petrol Blues
TTITLE3=Gus' Song
TTITLE4=I'm Not A Jealous Man
TTITLE5=No One Else To Blame
TTITLE6=Never Hear The Words I Sing
TTITLE7=Nowhere To Hide In This Town
TTITLE8=Bemboka Jim
TTITLE9=She's In Love With A Scotsman
TTITLE10=J.B
TTITLE11=Penguins and Polar Bears
EXTD=
EXTT0=
EXTT1=
EXTT2=
EXTT3=
EXTT4=
EXTT5=
EXTT6=
EXTT7=
EXTT8=
EXTT9=
EXTT10=
EXTT11=
PLAYORDER=
